{"title":"Querida.Voy.a.Comprar.Cigarrillos.y.Vuelvo.2011.DVDRip.HORiZON-A","uid":7013379,"size":1471398084,"categoryP":"video","categoryS":"movies","magnet":"?xt=urn:btih:bfb9381e12a6979a567cabeef100695263d310c2&amp;dn=Querida.Voy.a.Comprar.Cigarrillos.y.Vuelvo.2011.DVDRip.HORiZON-A&amp;tr=udp%3A%2F%2Ftracker.openbittorrent.com%3A80&amp;tr=udp%3A%2F%2Fopen.demonii.com%3A1337&amp;tr=udp%3A%2F%2Ftracker.coppersurfer.tk%3A6969&amp;tr=udp%3A%2F%2Fexodus.desync.com%3A6969","seeders":7,"leechers":1,"uploader":"lletaif","files":3,"time":1328554944,"description":"Title: Querida voy a comprar cigarrillos y vuelvo\n\nCountry: Argentina (2011)\n\nDirectors: Mariano Cohn, GastÃƒÂ³n Duprat\n\nWriters: Mariano Cohn, GastÃƒÂ³n Duprat\n\nStars: Daniel ArÃƒÂ¡oz, Diego Bliffeld and Stefany Carr Rollitt\n\nLanguage: Spanish\n\nSubtitle: English\n\nPlot: The film takes places in different time periods and countries. It narrates the story of a common man, who after entering into a deal with a strange character with superpowers, has the possibility of going back to his own past and to live again his youth. Ernesto, the main character, will try to recover lost opportunities and to curb certain behaviors in order to change his gray and insipid present. Despite having the advantage of knowing all the necessary information about the future, experience will show him that this flat personality and his resentment can go beyond these benefits and that there is no possible excuse to overcome his infinite mediocrity. \n\nImdb: http://www.imdb.com/title/tt1756692/\n\nRip Specs:\n\n\nGeneral\nComplete name                    : Querida.Voy.a.Comprar.Cigarrillos.y.Vuelvo.2011.DVDRip.HORiZON-ArtSubs\nFormat                           : AVI\nFormat/Info                      : Audio Video Interleave\nFile size                        : 1.36 GiB\nDuration                         : 1h 20mn\nOverall bit rate                 : 2 435 Kbps\nWriting application              : FairUse Wizard - http://fairusewizard.com\nWriting library                  : The best and REALLY easy backup tool\n\nVideo\nID                               : 0\nFormat                           : MPEG-4 Visual\nFormat profile                   : Advanced Simple@L5\nFormat settings, BVOP            : 1\nFormat settings, QPel            : No\nFormat settings, GMC             : No warppoints\nFormat settings, Matrix          : Default (MPEG)\nMuxing mode                      : Packed bitstream\nCodec ID                         : XVID\nCodec ID/Hint                    : XviD\nDuration                         : 1h 20mn\nBit rate                         : 1 977 Kbps\nWidth                            : 688 pixels\nHeight                           : 384 pixels\nDisplay aspect ratio             : 16:9\nFrame rate                       : 23.976 fps\nColor space                      : YUV\nChroma subsampling               : 4:2:0\nBit depth                        : 8 bits\nScan type                        : Progressive\nCompression mode                 : Lossy\nBits/(Pixel*Frame)               : 0.312\nStream size                      : 1.11 GiB (81%)\nWriting library                  : XviD 1.2.0.dev47 (UTC 2006-11-01)\n\nAudio\nID                               : 1\nFormat                           : AC-3\nFormat/Info                      : Audio Coding 3\nMode extension                   : CM (complete main)\nCodec ID                         : 2000\nDuration                         : 1h 20mn\nBit rate mode                    : Constant\nBit rate                         : 448 Kbps\nChannel(s)                       : 6 channels\nChannel positions                : Front: L C R, Side: L R, LFE\nSampling rate                    : 48.0 KHz\nBit depth                        : 16 bits\nCompression mode                 : Lossy\nStream size                      : 257 MiB (18%)\nAlignment                        : Split accross interleaves\nInterleave, duration             : 42 ms (1.00 video frame)\nInterleave, preload duration     : 500 ms\n","torrent":{"xt":"urn:btih:bfb9381e12a6979a567cabeef100695263d310c2","amp;dn":"Querida.Voy.a.Comprar.Cigarrillos.y.Vuelvo.2011.DVDRip.HORiZON-A","amp;tr":["udp%3A%2F%2Ftracker.openbittorrent.com%3A80","udp%3A%2F%2Fopen.demonii.com%3A1337","udp%3A%2F%2Ftracker.coppersurfer.tk%3A6969","udp%3A%2F%2Fexodus.desync.com%3A6969"],"infoHash":"bfb9381e12a6979a567cabeef100695263d310c2","infoHashBuffer":{"type":"Buffer","data":[191,185,56,30,18,166,151,154,86,124,171,238,241,0,105,82,99,211,16,194]},"announce":[],"urlList":[]}}